<?xml version="1.0" standalone="no"?>
<!DOCTYPE svg PUBLIC "-//W3C//DTD SVG 20010904//EN"
 "http://www.w3.org/TR/2001/REC-SVG-20010904/DTD/svg10.dtd">
<svg version="1.0" xmlns="http://www.w3.org/2000/svg"
 width="100.000000pt" height="100.000000pt" viewBox="0 0 100.000000 100.000000"
 preserveAspectRatio="xMidYMid meet">
<metadata>
Created by potrace 1.14, written by Peter Selinger 2001-2017
</metadata>
<g transform="translate(0.000000,100.000000) scale(0.100000,-0.100000)"
fill="#000000" stroke="none">
<path d="M120 922 c-68 -36 -70 -48 -70 -415 0 -359 2 -376 57 -415 17 -12 33
-19 37 -15 3 3 6 2 6 -4 0 -13 70 -6 89 10 11 9 13 9 8 0 -4 -6 -3 -15 3 -18
6 -4 10 -3 9 2 -3 19 2 33 12 33 5 0 7 -6 3 -12 -4 -8 -3 -10 2 -5 5 5 10 13
10 18 3 22 5 23 15 9 9 -12 10 -11 6 8 -4 16 -1 22 11 22 12 0 14 3 5 8 -9 6
-10 17 -4 40 5 17 7 46 5 64 -4 25 -2 29 5 18 7 -9 11 -10 11 -3 0 6 -4 15
-10 18 -5 3 -10 13 -10 22 0 13 4 12 18 -5 9 -11 25 -34 34 -51 20 -36 84 -77
111 -73 13 3 17 0 12 -8 -4 -7 4 -4 19 5 14 10 35 15 45 12 14 -3 18 -1 14 10
-4 9 2 16 16 20 11 3 19 9 16 13 -3 4 4 18 14 31 10 13 19 28 19 34 0 5 5 11
10 13 5 1 10 -28 11 -65 3 -106 20 -130 135 -185 13 -7 16 -6 10 3 -5 9 -2 11
9 6 9 -3 18 -1 21 6 3 9 8 8 15 -3 8 -11 11 -12 11 -2 0 7 5 10 12 6 6 -4 8
-3 5 3 -8 13 17 36 27 25 4 -4 6 -2 5 3 -5 17 12 56 21 50 5 -3 6 10 3 30 -4
22 -1 41 8 52 9 11 10 14 2 9 -8 -4 -13 -2 -13 6 0 8 6 20 13 27 9 11 9 13 0
7 -17 -9 -17 16 0 33 7 9 8 11 1 7 -8 -4 -12 6 -12 29 0 19 4 35 9 35 5 0 9 5
9 11 0 5 -4 8 -8 5 -5 -3 -9 8 -10 25 0 16 4 27 9 24 5 -4 9 -1 9 4 0 6 -4 11
-10 11 -5 0 -10 9 -10 20 0 11 5 20 10 20 6 0 10 5 10 11 0 5 -4 8 -8 5 -5 -3
-9 8 -10 25 0 16 4 27 9 24 5 -4 9 -1 9 4 0 6 -4 11 -10 11 -5 0 -10 9 -10 20
0 11 5 20 10 20 6 0 10 5 10 11 0 5 -5 7 -11 4 -13 -9 -8 27 6 37 6 5 5 8 -2
8 -8 0 -12 13 -11 35 1 22 5 32 12 28 6 -4 5 1 -3 10 -7 9 -11 28 -9 41 7 36
-31 98 -72 119 -44 23 -116 18 -156 -10 -19 -14 -62 -80 -119 -186 -75 -138
-91 -162 -101 -148 -6 9 -42 72 -79 141 -37 69 -79 140 -93 159 -44 59 -126
78 -192 43z"/>
</g>
</svg>
